<svg width="45" height="42" viewBox="0 0 45 42" fill="none" xmlns="http://www.w3.org/2000/svg">
<path d="M7.40616 41.1014C7.42207 41.1018 7.43774 41.105 7.45225 41.1106C7.46676 41.1163 7.47983 41.1245 7.49068 41.1346L7.70879 41.3431C7.53949 41.5118 7.33023 41.6468 7.09534 41.7388C6.82027 41.8391 6.52382 41.8876 6.22559 41.8809C5.94536 41.8859 5.66693 41.8408 5.40765 41.7482C5.17377 41.6633 4.96363 41.5356 4.79147 41.3739C4.61576 41.2062 4.48042 41.0096 4.39341 40.7958C4.29812 40.5575 4.25107 40.3066 4.25436 40.0542C4.25049 39.8003 4.30135 39.548 4.40431 39.3103C4.49956 39.0951 4.64323 38.8986 4.82691 38.7322C5.01309 38.5691 5.2358 38.4409 5.48127 38.3555C5.7498 38.265 6.03576 38.22 6.32375 38.2228C6.59126 38.2172 6.85735 38.2583 7.10624 38.3437C7.32218 38.4251 7.52045 38.5381 7.69243 38.6777L7.50976 38.9004C7.49714 38.9161 7.48145 38.9297 7.46341 38.9407C7.44186 38.9535 7.41581 38.9594 7.3898 38.9573C7.3615 38.9556 7.33422 38.9474 7.31073 38.9336L7.21258 38.8744L7.07625 38.7985C7.0174 38.7704 6.95636 38.7459 6.89358 38.7251C6.81271 38.7 6.72977 38.6802 6.64547 38.6659C6.53848 38.6487 6.4298 38.6408 6.32102 38.6422C6.11364 38.6399 5.90784 38.6737 5.71574 38.7417C5.53659 38.8046 5.37488 38.8999 5.24134 39.0213C5.10539 39.1503 5.00062 39.3018 4.93325 39.4667C4.85646 39.6553 4.81862 39.8542 4.82146 40.0542C4.81819 40.2574 4.85602 40.4595 4.93325 40.6513C4.99978 40.8148 5.1026 40.9653 5.23588 41.0943C5.36076 41.2146 5.51554 41.3086 5.68848 41.3692C5.86645 41.4333 6.05748 41.4655 6.25013 41.4639C6.36142 41.4654 6.47265 41.4591 6.58276 41.445C6.76255 41.4259 6.93501 41.3716 7.08716 41.2862C7.16347 41.2425 7.23551 41.1934 7.30255 41.1394C7.33058 41.1161 7.36744 41.1026 7.40616 41.1014Z" fill="#AFB1B8"/>
<path d="M13.7043 40.0538C13.7077 40.3052 13.6578 40.5549 13.5571 40.7906C13.4682 41.0043 13.3283 41.1993 13.1464 41.3626C12.9645 41.526 12.7449 41.654 12.502 41.7382C11.9682 41.9151 11.3781 41.9151 10.8443 41.7382C10.6029 41.6527 10.3847 41.5244 10.2036 41.3615C10.0218 41.1952 9.88083 40.9986 9.78915 40.7835C9.59274 40.3063 9.59274 39.7847 9.78915 39.3076C9.88216 39.0923 10.023 38.8951 10.2036 38.7271C10.3862 38.5694 10.6043 38.446 10.8443 38.3647C11.3774 38.1846 11.9688 38.1846 12.502 38.3647C12.7442 38.4502 12.9633 38.5784 13.1454 38.7414C13.3249 38.906 13.4648 39.1001 13.5571 39.3123C13.6581 39.5495 13.708 39.8009 13.7043 40.0538ZM13.1318 40.0538C13.1361 39.8527 13.101 39.6525 13.0282 39.4615C12.9671 39.298 12.8677 39.1472 12.7364 39.0185C12.6086 38.8968 12.4512 38.8013 12.2757 38.739C11.8878 38.6095 11.4584 38.6095 11.0706 38.739C10.895 38.8013 10.7376 38.8968 10.6098 39.0185C10.4767 39.1464 10.3763 39.2974 10.3154 39.4615C10.1766 39.8472 10.1766 40.2604 10.3154 40.6461C10.3769 40.81 10.4772 40.9609 10.6098 41.0891C10.7378 41.2101 10.8952 41.3048 11.0706 41.3663C11.4591 41.4925 11.8871 41.4925 12.2757 41.3663C12.451 41.3048 12.6084 41.2101 12.7364 41.0891C12.8672 40.9601 12.9664 40.8094 13.0282 40.6461C13.1013 40.4552 13.1364 40.2549 13.1318 40.0538Z" fill="#AFB1B8"/>
<path d="M18.0012 40.6748L18.0584 40.8074C18.0803 40.7601 18.0993 40.7174 18.1212 40.6748C18.142 40.6302 18.1656 40.5867 18.192 40.5445L19.5853 38.3439C19.6125 38.306 19.6371 38.2823 19.6643 38.2752C19.7014 38.2654 19.7402 38.2614 19.7788 38.2634H20.1905V41.8426H19.7025V39.2109C19.7025 39.1777 19.7025 39.1398 19.7025 39.0996C19.6999 39.0585 19.6999 39.0174 19.7025 38.9764L18.3011 41.2078C18.2833 41.2412 18.2548 41.2694 18.2191 41.2892C18.1833 41.3089 18.1417 41.3193 18.0993 41.3191H18.0203C17.9778 41.3196 17.9361 41.3093 17.9003 41.2896C17.8644 41.2698 17.836 41.2414 17.8185 41.2078L16.3762 38.9622C16.3762 39.0048 16.3762 39.0474 16.3762 39.0901C16.3762 39.1327 16.3762 39.1706 16.3762 39.2038V41.8355H15.9045V38.2634H16.3162C16.3549 38.2614 16.3937 38.2654 16.4307 38.2752C16.4646 38.2898 16.4915 38.3141 16.5071 38.3439L17.9303 40.5469C17.9583 40.5876 17.982 40.6304 18.0012 40.6748Z" fill="#AFB1B8"/>
<path d="M23.2443 40.4969V41.8376H22.699V38.2633H23.915C24.1445 38.2594 24.3734 38.2858 24.5939 38.3414C24.7704 38.3849 24.934 38.4608 25.0737 38.5641C25.1948 38.6609 25.2882 38.7809 25.3464 38.9147C25.4107 39.0605 25.4422 39.2157 25.4391 39.3718C25.4415 39.5286 25.4072 39.6841 25.3382 39.829C25.2726 39.9661 25.1719 40.0884 25.0437 40.1866C24.9038 40.2942 24.7394 40.3749 24.5612 40.4235C24.3489 40.4824 24.1269 40.5105 23.9041 40.5064L23.2443 40.4969ZM23.2443 40.1132H23.9041C24.0474 40.1148 24.1901 40.0964 24.3267 40.0587C24.4394 40.0258 24.5432 39.9734 24.632 39.9048C24.714 39.8392 24.7774 39.7582 24.8174 39.6679C24.8621 39.5724 24.8843 39.4701 24.8829 39.3671C24.8892 39.2677 24.8706 39.1683 24.8282 39.0759C24.7858 38.9834 24.7207 38.9001 24.6375 38.8317C24.4292 38.6904 24.1676 38.622 23.9041 38.6399H23.2443V40.1132Z" fill="#AFB1B8"/>
<path d="M30.5731 41.8425H30.1423C30.0991 41.8439 30.0566 41.8322 30.0223 41.8093C29.9914 41.787 29.9671 41.7586 29.9514 41.7264L29.5806 40.8617H27.7185L27.334 41.7264C27.3199 41.758 27.2964 41.7858 27.2659 41.8069C27.2312 41.8312 27.1877 41.8438 27.1432 41.8425H26.7124L28.3483 38.2629H28.9154L30.5731 41.8425ZM27.8739 40.5135H29.4116L28.7627 39.0565C28.7131 38.9469 28.6721 38.8345 28.64 38.7201L28.5773 38.9073C28.5582 38.9641 28.5364 39.0162 28.5173 39.0589L27.8739 40.5135Z" fill="#AFB1B8"/>
<path d="M32.9287 38.2796C32.9613 38.2951 32.9893 38.317 33.0105 38.3435L35.3961 41.0418C35.3961 40.9991 35.3961 40.9565 35.3961 40.9162C35.3961 40.8759 35.3961 40.8357 35.3961 40.7978V38.263H35.8842V41.8425H35.6115C35.5728 41.8435 35.5344 41.8362 35.4997 41.8212C35.466 41.8041 35.4364 41.7816 35.4125 41.7548L33.0295 39.0589C33.0322 39.1 33.0322 39.1411 33.0295 39.1821C33.0295 39.2224 33.0295 39.2579 33.0295 39.2911V41.8425H32.5415V38.263H32.8305C32.8642 38.2622 32.8977 38.2678 32.9287 38.2796Z" fill="#AFB1B8"/>
<path d="M39.9029 40.4188V41.8402H39.3576V40.4188L37.8499 38.2631H38.3379C38.3799 38.2609 38.4215 38.2718 38.4551 38.2939C38.4848 38.3169 38.5097 38.3441 38.5288 38.3744L39.4721 39.765C39.5103 39.8242 39.543 39.8787 39.5703 39.9308C39.5975 39.983 39.6193 40.0327 39.6384 40.0824L39.7093 39.9285C39.7358 39.8722 39.7668 39.8175 39.802 39.765L40.7318 38.3649C40.7513 38.337 40.7752 38.3115 40.8026 38.2891C40.835 38.2646 40.877 38.2519 40.9199 38.2536H41.4134L39.9029 40.4188Z" fill="#AFB1B8"/>
<path d="M17.7312 32.2561C17.9684 32.2822 18.2083 32.3035 18.451 32.3225C22.1298 30.8926 25.242 28.5523 27.3985 25.5942C29.5549 22.636 30.66 19.1912 30.5756 15.6904L26.5214 12.1678C27.3457 15.8951 26.9601 19.7482 25.4077 23.2959C23.8553 26.8437 21.1973 29.9461 17.7312 32.2561Z" fill="#AFB1B8"/>
<path d="M16.2834 32.0923L16.3925 32.1113C20.0964 29.8094 22.9203 26.5951 24.499 22.8839C26.0777 19.1727 26.3387 15.1354 25.2481 11.294L19.4734 6.27676C21.8091 10.4008 22.7493 15.0162 22.1846 19.5862C21.6199 24.1562 19.5735 28.493 16.2834 32.0923Z" fill="#AFB1B8"/>
<path d="M35.8677 19.8266C34.8866 23.6732 32.5039 27.1423 29.0734 29.7189C28.0715 30.4756 26.9908 31.1497 25.8452 31.7325C28.6387 31.0191 31.2063 29.7579 33.35 28.046C35.4938 26.3342 37.1564 24.2175 38.2098 21.8591L35.8677 19.8266Z" fill="#AFB1B8"/>
<path d="M34.949 19.2602L31.6146 16.363C31.5508 19.6661 30.47 22.8941 28.4845 25.7115C26.499 28.5289 23.6813 30.8328 20.3242 32.3838H20.3406C21.0887 32.3836 21.8362 32.3448 22.579 32.2678C25.7164 31.1552 28.488 29.385 30.6464 27.1153C32.8049 24.8456 34.283 22.147 34.949 19.2602Z" fill="#AFB1B8"/>
<path d="M16.7662 4.16097L12.7882 0.700012C9.2321 1.89397 6.17368 3.99289 4.01325 6.72209C1.85282 9.45128 0.691028 12.6836 0.679932 15.996H0.679932C0.69326 19.656 2.11114 23.2077 4.70916 26.0889C7.30719 28.97 10.9369 31.016 15.0239 31.9031C18.6724 28.041 20.8084 23.2688 21.1217 18.2798C21.4351 13.2908 19.9093 8.34501 16.7662 4.16097Z" fill="#AFB1B8"/>
<path d="M44.1399 18.7274C44.1255 14.3849 42.1336 10.2238 38.5995 7.15324C35.0653 4.08263 30.2761 2.35205 25.2781 2.33955C22.9686 2.33747 20.6787 2.70775 18.5247 3.4316L42.8802 24.5927C43.7142 22.7221 44.1413 20.7334 44.1399 18.7274Z" fill="#AFB1B8"/>
</svg>
