<svg width="85" height="42" viewBox="0 0 85 42" fill="none" xmlns="http://www.w3.org/2000/svg">
<path d="M13.1462 13.1029H13.1433C10.7453 13.1029 8.80127 14.8305 8.80127 16.9616V16.9641C8.80127 19.0952 10.7453 20.8228 13.1433 20.8228H13.1462C15.5442 20.8228 17.4882 19.0952 17.4882 16.9641V16.9616C17.4882 14.8305 15.5442 13.1029 13.1462 13.1029Z" fill="#AFB1B8"/>
<path d="M45.1951 11.8693C45.1883 8.90935 43.8624 6.07229 41.5075 3.97901C39.1526 1.88574 35.9605 0.706733 32.6299 0.700012V0.700012C29.2982 0.705389 26.1046 1.8838 23.7485 3.97722C21.3924 6.07064 20.0656 8.90847 20.0588 11.8693V11.8693V28.1922C20.0588 28.1922 45.1923 25.7045 45.1951 11.8719V11.8693Z" fill="#AFB1B8"/>
<path d="M0 33.5496C0.00604098 35.6092 0.929149 37.5829 2.56761 39.0395C4.20607 40.4961 6.42668 41.3171 8.74418 41.3231V41.3231C11.0612 41.3171 13.2814 40.4964 14.9197 39.0404C16.5581 37.5843 17.4816 35.6113 17.4884 33.5521V33.5521V22.1944C17.4884 22.1944 0 23.9267 0 33.5496ZM8.74418 35.5845C8.2913 35.5845 7.84859 35.4652 7.47204 35.2416C7.09548 35.018 6.80199 34.7002 6.62868 34.3283C6.45537 33.9565 6.41002 33.5473 6.49838 33.1526C6.58673 32.7578 6.80481 32.3952 7.12505 32.1106C7.44528 31.826 7.85328 31.6322 8.29746 31.5537C8.74164 31.4752 9.20204 31.5155 9.62045 31.6695C10.0389 31.8235 10.3965 32.0843 10.6481 32.419C10.8997 32.7536 11.034 33.1471 11.034 33.5496C11.0351 33.8174 10.9767 34.0829 10.8622 34.3307C10.7476 34.5784 10.5791 34.8037 10.3664 34.9934C10.1536 35.1832 9.90081 35.3338 9.62244 35.4365C9.34407 35.5393 9.04561 35.5922 8.74418 35.5922V35.5845Z" fill="#AFB1B8"/>
<path d="M24.7302 31.9413V36.2069H23.8513V31.9413H24.7302ZM26.4294 33.7636V34.4491H24.49V33.7636H26.4294ZM26.6345 31.9413V32.6298H24.49V31.9413H26.6345ZM30.6482 33.9745V34.1767C30.6482 34.5009 30.6042 34.7919 30.5164 35.0497C30.4285 35.3075 30.3044 35.5273 30.1443 35.7089C29.9841 35.8886 29.7927 36.0263 29.5701 36.122C29.3494 36.2177 29.1042 36.2655 28.8347 36.2655C28.5671 36.2655 28.322 36.2177 28.0994 36.122C27.8787 36.0263 27.6873 35.8886 27.5251 35.7089C27.363 35.5273 27.2371 35.3075 27.1472 35.0497C27.0593 34.7919 27.0154 34.5009 27.0154 34.1767V33.9745C27.0154 33.6483 27.0593 33.3573 27.1472 33.1015C27.2351 32.8437 27.3591 32.6239 27.5193 32.4423C27.6814 32.2607 27.8728 32.122 28.0935 32.0263C28.3162 31.9306 28.5613 31.8827 28.8289 31.8827C29.0984 31.8827 29.3435 31.9306 29.5642 32.0263C29.7869 32.122 29.9783 32.2607 30.1384 32.4423C30.3005 32.6239 30.4255 32.8437 30.5134 33.1015C30.6033 33.3573 30.6482 33.6483 30.6482 33.9745ZM29.7605 34.1767V33.9687C29.7605 33.7421 29.74 33.5429 29.699 33.371C29.658 33.1991 29.5974 33.0546 29.5173 32.9374C29.4373 32.8202 29.3396 32.7323 29.2244 32.6737C29.1091 32.6132 28.9773 32.5829 28.8289 32.5829C28.6804 32.5829 28.5486 32.6132 28.4333 32.6737C28.3201 32.7323 28.2234 32.8202 28.1433 32.9374C28.0652 33.0546 28.0056 33.1991 27.9646 33.371C27.9236 33.5429 27.9031 33.7421 27.9031 33.9687V34.1767C27.9031 34.4013 27.9236 34.6005 27.9646 34.7743C28.0056 34.9462 28.0662 35.0917 28.1462 35.2108C28.2263 35.328 28.324 35.4169 28.4392 35.4774C28.5544 35.538 28.6863 35.5683 28.8347 35.5683C28.9832 35.5683 29.115 35.538 29.2302 35.4774C29.3455 35.4169 29.4421 35.328 29.5203 35.2108C29.5984 35.0917 29.658 34.9462 29.699 34.7743C29.74 34.6005 29.7605 34.4013 29.7605 34.1767ZM33.5017 35.0907C33.5017 35.0146 33.49 34.9462 33.4666 34.8857C33.4451 34.8232 33.4041 34.7665 33.3435 34.7157C33.283 34.663 33.198 34.6112 33.0886 34.5605C32.9792 34.5097 32.8376 34.4569 32.6638 34.4023C32.4705 34.3398 32.2869 34.2694 32.113 34.1913C31.9412 34.1132 31.7888 34.0224 31.656 33.9189C31.5251 33.8134 31.4216 33.6913 31.3455 33.5526C31.2712 33.414 31.2341 33.2528 31.2341 33.0692C31.2341 32.8915 31.2732 32.7304 31.3513 32.5858C31.4294 32.4394 31.5388 32.3144 31.6794 32.2108C31.8201 32.1054 31.9861 32.0243 32.1775 31.9677C32.3708 31.911 32.5828 31.8827 32.8132 31.8827C33.1277 31.8827 33.4021 31.9394 33.6365 32.0526C33.8708 32.1659 34.0525 32.3212 34.1814 32.5185C34.3123 32.7157 34.3777 32.9413 34.3777 33.1952H33.5046C33.5046 33.0702 33.4783 32.9608 33.4255 32.8671C33.3748 32.7714 33.2966 32.6962 33.1912 32.6415C33.0876 32.5868 32.9568 32.5595 32.7986 32.5595C32.6462 32.5595 32.5193 32.5829 32.4177 32.6298C32.3162 32.6747 32.24 32.7362 32.1892 32.8144C32.1384 32.8905 32.113 32.9765 32.113 33.0722C32.113 33.1444 32.1306 33.2099 32.1658 33.2685C32.2029 33.3271 32.2576 33.3817 32.3298 33.4325C32.4021 33.4833 32.491 33.5312 32.5964 33.5761C32.7019 33.621 32.824 33.6649 32.9626 33.7079C33.1951 33.7782 33.3992 33.8573 33.575 33.9452C33.7527 34.0331 33.9011 34.1317 34.0203 34.2411C34.1394 34.3505 34.2292 34.4745 34.2898 34.6132C34.3503 34.7519 34.3806 34.9091 34.3806 35.0849C34.3806 35.2704 34.3445 35.4364 34.2722 35.5829C34.2 35.7294 34.0955 35.8534 33.9587 35.955C33.822 36.0565 33.6589 36.1337 33.4695 36.1864C33.28 36.2392 33.0681 36.2655 32.8337 36.2655C32.6228 36.2655 32.4148 36.2382 32.2097 36.1835C32.0046 36.1269 31.8181 36.0419 31.6501 35.9286C31.4841 35.8153 31.3513 35.6708 31.2517 35.495C31.1521 35.3192 31.1023 35.1112 31.1023 34.871H31.9841C31.9841 35.0038 32.0046 35.1161 32.0457 35.2079C32.0867 35.2997 32.1443 35.3739 32.2185 35.4306C32.2947 35.4872 32.3845 35.5282 32.488 35.5536C32.5935 35.579 32.7087 35.5917 32.8337 35.5917C32.9861 35.5917 33.1111 35.5702 33.2087 35.5273C33.3083 35.4843 33.3816 35.4247 33.4285 35.3485C33.4773 35.2724 33.5017 35.1864 33.5017 35.0907ZM36.8855 31.9413V36.2069H36.0095V31.9413H36.8855ZM38.198 31.9413V32.6298H34.7175V31.9413H38.198ZM41.5613 35.5214V36.2069H39.2908V35.5214H41.5613ZM39.5779 31.9413V36.2069H38.699V31.9413H39.5779ZM41.2654 33.6786V34.3466H39.2908V33.6786H41.2654ZM41.5583 31.9413V32.6298H39.2908V31.9413H41.5583ZM42.074 31.9413H43.6648C43.991 31.9413 44.2712 31.9901 44.5056 32.0878C44.7419 32.1855 44.9236 32.33 45.0505 32.5214C45.1775 32.7128 45.241 32.9482 45.241 33.2274C45.241 33.456 45.2019 33.6523 45.1238 33.8163C45.0476 33.9784 44.9392 34.1142 44.7986 34.2235C44.6599 34.331 44.4968 34.4169 44.3093 34.4814L44.031 34.6278H42.6482L42.6423 33.9423H43.6707C43.825 33.9423 43.9529 33.9149 44.0544 33.8603C44.156 33.8056 44.2322 33.7294 44.283 33.6317C44.3357 33.5341 44.3621 33.4208 44.3621 33.2919C44.3621 33.1552 44.3367 33.037 44.2859 32.9374C44.2351 32.8378 44.158 32.7616 44.0544 32.7089C43.9509 32.6562 43.821 32.6298 43.6648 32.6298H42.9529V36.2069H42.074V31.9413ZM44.4587 36.2069L43.4861 34.3056L44.4148 34.2997L45.3992 36.1659V36.2069H44.4587ZM49.073 34.6864H47.9861V34.0009H49.073C49.241 34.0009 49.3777 33.9735 49.4832 33.9189C49.5886 33.8622 49.6658 33.7841 49.7146 33.6845C49.7634 33.5849 49.7878 33.4726 49.7878 33.3476C49.7878 33.2206 49.7634 33.1024 49.7146 32.9931C49.6658 32.8837 49.5886 32.7958 49.4832 32.7294C49.3777 32.663 49.241 32.6298 49.073 32.6298H48.2908V36.2069H47.4119V31.9413H49.073C49.407 31.9413 49.6931 32.0019 49.9314 32.123C50.1716 32.2421 50.3552 32.4071 50.4822 32.6181C50.6091 32.829 50.6726 33.0702 50.6726 33.3417C50.6726 33.6171 50.6091 33.8554 50.4822 34.0565C50.3552 34.2577 50.1716 34.413 49.9314 34.5224C49.6931 34.6317 49.407 34.6864 49.073 34.6864ZM54.1414 35.5214V36.2069H51.8708V35.5214H54.1414ZM52.158 31.9413V36.2069H51.2791V31.9413H52.158ZM53.8455 33.6786V34.3466H51.8708V33.6786H53.8455ZM54.1384 31.9413V32.6298H51.8708V31.9413H54.1384ZM56.6199 31.9413V36.2069H55.7439V31.9413H56.6199ZM57.9324 31.9413V32.6298H54.4519V31.9413H57.9324ZM61.2957 35.5214V36.2069H59.0251V35.5214H61.2957ZM59.3123 31.9413V36.2069H58.4333V31.9413H59.3123ZM60.9998 33.6786V34.3466H59.0251V33.6786H60.9998ZM61.2927 31.9413V32.6298H59.0251V31.9413H61.2927ZM61.8083 31.9413H63.3992C63.7253 31.9413 64.0056 31.9901 64.24 32.0878C64.4763 32.1855 64.658 32.33 64.7849 32.5214C64.9119 32.7128 64.9753 32.9482 64.9753 33.2274C64.9753 33.456 64.9363 33.6523 64.8582 33.8163C64.782 33.9784 64.6736 34.1142 64.533 34.2235C64.3943 34.331 64.2312 34.4169 64.0437 34.4814L63.7654 34.6278H62.3826L62.3767 33.9423H63.405C63.5593 33.9423 63.6873 33.9149 63.7888 33.8603C63.8904 33.8056 63.9666 33.7294 64.0173 33.6317C64.0701 33.5341 64.0964 33.4208 64.0964 33.2919C64.0964 33.1552 64.071 33.037 64.0203 32.9374C63.9695 32.8378 63.8923 32.7616 63.7888 32.7089C63.6853 32.6562 63.5554 32.6298 63.3992 32.6298H62.6873V36.2069H61.8083V31.9413ZM64.1931 36.2069L63.2205 34.3056L64.1492 34.2997L65.1335 36.1659V36.2069H64.1931ZM67.8728 35.0907C67.8728 35.0146 67.8611 34.9462 67.8376 34.8857C67.8162 34.8232 67.7751 34.7665 67.7146 34.7157C67.6541 34.663 67.5691 34.6112 67.4597 34.5605C67.3503 34.5097 67.2087 34.4569 67.0349 34.4023C66.8416 34.3398 66.658 34.2694 66.4841 34.1913C66.3123 34.1132 66.1599 34.0224 66.0271 33.9189C65.8962 33.8134 65.7927 33.6913 65.7166 33.5526C65.6423 33.414 65.6052 33.2528 65.6052 33.0692C65.6052 32.8915 65.6443 32.7304 65.7224 32.5858C65.8005 32.4394 65.9099 32.3144 66.0505 32.2108C66.1912 32.1054 66.3572 32.0243 66.5486 31.9677C66.7419 31.911 66.9539 31.8827 67.1843 31.8827C67.4988 31.8827 67.7732 31.9394 68.0076 32.0526C68.2419 32.1659 68.4236 32.3212 68.5525 32.5185C68.6833 32.7157 68.7488 32.9413 68.7488 33.1952H67.8757C67.8757 33.0702 67.8494 32.9608 67.7966 32.8671C67.7458 32.7714 67.6677 32.6962 67.5623 32.6415C67.4587 32.5868 67.3279 32.5595 67.1697 32.5595C67.0173 32.5595 66.8904 32.5829 66.7888 32.6298C66.6873 32.6747 66.6111 32.7362 66.5603 32.8144C66.5095 32.8905 66.4841 32.9765 66.4841 33.0722C66.4841 33.1444 66.5017 33.2099 66.5369 33.2685C66.574 33.3271 66.6287 33.3817 66.7009 33.4325C66.7732 33.4833 66.8621 33.5312 66.9675 33.5761C67.073 33.621 67.1951 33.6649 67.3337 33.7079C67.5662 33.7782 67.7703 33.8573 67.946 33.9452C68.1238 34.0331 68.2722 34.1317 68.3914 34.2411C68.5105 34.3505 68.6003 34.4745 68.6609 34.6132C68.7214 34.7519 68.7517 34.9091 68.7517 35.0849C68.7517 35.2704 68.7156 35.4364 68.6433 35.5829C68.571 35.7294 68.4666 35.8534 68.3298 35.955C68.1931 36.0565 68.03 36.1337 67.8406 36.1864C67.6511 36.2392 67.4392 36.2655 67.2048 36.2655C66.9939 36.2655 66.7859 36.2382 66.5808 36.1835C66.3757 36.1269 66.1892 36.0419 66.0212 35.9286C65.8552 35.8153 65.7224 35.6708 65.6228 35.495C65.5232 35.3192 65.4734 35.1112 65.4734 34.871H66.3552C66.3552 35.0038 66.3757 35.1161 66.4167 35.2079C66.4578 35.2997 66.5154 35.3739 66.5896 35.4306C66.6658 35.4872 66.7556 35.5282 66.8591 35.5536C66.9646 35.579 67.0798 35.5917 67.2048 35.5917C67.3572 35.5917 67.4822 35.5702 67.5798 35.5273C67.6794 35.4843 67.7527 35.4247 67.7996 35.3485C67.8484 35.2724 67.8728 35.1864 67.8728 35.0907Z" fill="#AFB1B8"/>
</svg>
